<mxfile host="app.diagrams.net" agent="Mozilla/5.0 (Windows NT 10.0; Win64; x64) AppleWebKit/537.36 (KHTML, like Gecko) Chrome/132.0.0.0 Safari/537.36" version="26.0.14">
  <diagram name="Página-1" id="soylEKhCEm4hNBsVMeLt">
    <mxGraphModel dx="932" dy="552" grid="1" gridSize="10" guides="1" tooltips="1" connect="1" arrows="1" fold="1" page="1" pageScale="1" pageWidth="827" pageHeight="1169" math="0" shadow="0">
      <root>
        <mxCell id="0" />
        <mxCell id="1" parent="0" />
        <mxCell id="KpHtbhdy7NQ5oqnVyyX--1" value="usuario" style="rounded=0;whiteSpace=wrap;html=1;" parent="1" vertex="1">
          <mxGeometry x="354" y="120" width="120" height="60" as="geometry" />
        </mxCell>
        <mxCell id="KpHtbhdy7NQ5oqnVyyX--2" value="- int id&amp;nbsp;&lt;div&gt;- string nombre&amp;nbsp;&lt;/div&gt;" style="rounded=0;whiteSpace=wrap;html=1;align=left;" parent="1" vertex="1">
          <mxGeometry x="354" y="180" width="120" height="70" as="geometry" />
        </mxCell>
        <mxCell id="KpHtbhdy7NQ5oqnVyyX--3" value="&lt;font style=&quot;font-size: 10px;&quot;&gt;+&amp;nbsp;&lt;span style=&quot;margin: 0px; padding: 0px; user-select: text; -webkit-user-drag: none; -webkit-tap-highlight-color: transparent; background-repeat: repeat-x; background-position: left bottom; background-image: url(&amp;quot;data:image/gif;base64,R0lGODlhBQAEAJECAP////8AAAAAAAAAACH5BAEAAAIALAAAAAAFAAQAAAIIlGAXCCHrTCgAOw==&amp;quot;); border-bottom: 1px solid transparent; font-family: &amp;quot;Century Schoolbook&amp;quot;, serif; font-variant-ligatures: none; text-align: left; background-color: inherit;&quot; class=&quot;SpellingError  BCX0 SCXO25836580&quot;&gt;obtenerInformacion&lt;/span&gt;&lt;span style=&quot;margin: 0px; padding: 0px; user-select: text; -webkit-user-drag: none; -webkit-tap-highlight-color: transparent; font-family: &amp;quot;Century Schoolbook&amp;quot;, serif; font-variant-ligatures: none; text-align: left; background-color: inherit;&quot; class=&quot;NormalTextRun  BCX0 SCXO25836580&quot;&gt;()&lt;/span&gt;&lt;/font&gt;&lt;div&gt;&lt;font style=&quot;font-size: 10px;&quot;&gt;&lt;font style=&quot;&quot;&gt;&lt;span style=&quot;margin: 0px; padding: 0px; user-select: text; -webkit-user-drag: none; -webkit-tap-highlight-color: transparent; font-family: &amp;quot;Century Schoolbook&amp;quot;, serif; font-variant-ligatures: none; text-align: left; background-color: inherit;&quot; class=&quot;NormalTextRun  BCX0 SCXO25836580&quot;&gt;+&lt;/span&gt;&lt;/font&gt;&lt;span style=&quot;background-color: inherit; color: light-dark(rgb(0, 0, 0), rgb(255, 255, 255)); margin: 0px; padding: 0px; user-select: text; -webkit-user-drag: none; -webkit-tap-highlight-color: transparent; background-repeat: repeat-x; background-position: left bottom; background-image: url(&amp;quot;data:image/gif;base64,R0lGODlhBQAEAJECAP////8AAAAAAAAAACH5BAEAAAIALAAAAAAFAAQAAAIIlGAXCCHrTCgAOw==&amp;quot;); border-bottom: 1px solid transparent; font-family: &amp;quot;Century Schoolbook&amp;quot;, serif; font-variant-ligatures: none; text-align: left;&quot; class=&quot;SpellingError  BCX0 SCXO25836580&quot;&gt;actualizarEstado&lt;/span&gt;&lt;span style=&quot;background-color: inherit; color: light-dark(rgb(0, 0, 0), rgb(255, 255, 255)); margin: 0px; padding: 0px; user-select: text; -webkit-user-drag: none; -webkit-tap-highlight-color: transparent; font-family: &amp;quot;Century Schoolbook&amp;quot;, serif; font-variant-ligatures: none; text-align: left;&quot; class=&quot;NormalTextRun  BCX0 SCXO25836580&quot;&gt;()&lt;/span&gt;&lt;/font&gt;&lt;/div&gt;" style="rounded=0;whiteSpace=wrap;html=1;" parent="1" vertex="1">
          <mxGeometry x="354" y="250" width="120" height="60" as="geometry" />
        </mxCell>
        <mxCell id="KpHtbhdy7NQ5oqnVyyX--5" value="" style="endArrow=classic;html=1;rounded=0;entryX=0.5;entryY=0;entryDx=0;entryDy=0;" parent="1" target="KpHtbhdy7NQ5oqnVyyX--6" edge="1">
          <mxGeometry width="50" height="50" relative="1" as="geometry">
            <mxPoint x="410" y="370" as="sourcePoint" />
            <mxPoint x="414" y="380" as="targetPoint" />
            <Array as="points" />
          </mxGeometry>
        </mxCell>
        <mxCell id="KpHtbhdy7NQ5oqnVyyX--6" value="prestamo" style="rounded=0;whiteSpace=wrap;html=1;" parent="1" vertex="1">
          <mxGeometry x="354" y="430" width="126" height="60" as="geometry" />
        </mxCell>
        <mxCell id="KpHtbhdy7NQ5oqnVyyX--8" value="" style="endArrow=none;html=1;rounded=0;exitX=0.53;exitY=-0.1;exitDx=0;exitDy=0;exitPerimeter=0;" parent="1" source="KpHtbhdy7NQ5oqnVyyX--9" edge="1">
          <mxGeometry width="50" height="50" relative="1" as="geometry">
            <mxPoint x="420" y="340" as="sourcePoint" />
            <mxPoint x="420" y="310" as="targetPoint" />
          </mxGeometry>
        </mxCell>
        <mxCell id="KpHtbhdy7NQ5oqnVyyX--9" value="tiene" style="text;html=1;align=center;verticalAlign=middle;resizable=0;points=[];autosize=1;strokeColor=none;fillColor=none;" parent="1" vertex="1">
          <mxGeometry x="385" y="348" width="50" height="30" as="geometry" />
        </mxCell>
        <mxCell id="KpHtbhdy7NQ5oqnVyyX--10" value="- date fechainicio&lt;div&gt;-date fechadevolución&lt;/div&gt;&lt;div&gt;-string estado&lt;/div&gt;&lt;div&gt;- string libro&lt;/div&gt;&lt;div&gt;- string nombre&lt;/div&gt;&lt;div&gt;&lt;br&gt;&lt;/div&gt;" style="whiteSpace=wrap;html=1;aspect=fixed;align=left;" parent="1" vertex="1">
          <mxGeometry x="355" y="490" width="125" height="125" as="geometry" />
        </mxCell>
        <mxCell id="KpHtbhdy7NQ5oqnVyyX--12" value="&lt;font style=&quot;font-size: 10px;&quot;&gt;&lt;br&gt;&lt;span style=&quot;margin: 0px; padding: 0px; user-select: text; -webkit-user-drag: none; -webkit-tap-highlight-color: transparent; outline: transparent solid 1px; color: windowtext; font-family: &amp;quot;Century Schoolbook&amp;quot;, serif; font-style: normal; font-variant-caps: normal; font-weight: 400; letter-spacing: normal; orphans: 2; text-align: left; text-indent: 0px; text-transform: none; widows: 2; word-spacing: 0px; -webkit-text-stroke-width: 0px; white-space: normal; text-decoration-thickness: initial; text-decoration-style: initial; text-decoration-color: initial; line-height: 20.7px; font-variant-ligatures: none !important;&quot; lang=&quot;ES-US&quot; class=&quot;TextRun Highlight SCXO44285305 BCX0&quot; data-contrast=&quot;auto&quot;&gt;&lt;span style=&quot;margin: 0px; padding: 0px; user-select: text; -webkit-user-drag: none; -webkit-tap-highlight-color: transparent; background-repeat: repeat-x; background-position: left bottom; background-image: url(&amp;quot;data:image/gif;base64,R0lGODlhBQAEAJECAP////8AAAAAAAAAACH5BAEAAAIALAAAAAAFAAQAAAIIlGAXCCHrTCgAOw==&amp;quot;); border-bottom: 1px solid transparent;&quot; class=&quot;SpellingError SCXO44285305 BCX0&quot;&gt;+ registrarPrestamo&lt;/span&gt;&lt;span style=&quot;margin: 0px; padding: 0px; user-select: text; -webkit-user-drag: none; -webkit-tap-highlight-color: transparent;&quot; class=&quot;NormalTextRun SCXO44285305 BCX0&quot;&gt;(libro, usuario)&lt;/span&gt;&lt;/span&gt;&lt;span style=&quot;margin: 0px; padding: 0px; user-select: text; -webkit-user-drag: none; -webkit-tap-highlight-color: transparent; color: windowtext; font-family: &amp;quot;Century Schoolbook&amp;quot;, serif; font-style: normal; font-variant-ligatures: normal; font-variant-caps: normal; font-weight: 400; letter-spacing: normal; orphans: 2; text-align: left; text-indent: 0px; text-transform: none; widows: 2; word-spacing: 0px; -webkit-text-stroke-width: 0px; white-space: normal; text-decoration-thickness: initial; text-decoration-style: initial; text-decoration-color: initial; line-height: 20.7px;&quot; class=&quot;EOP SCXO44285305 BCX0&quot;&gt;&amp;nbsp;&lt;/span&gt;&lt;br&gt;&lt;/font&gt;" style="rounded=0;whiteSpace=wrap;html=1;" parent="1" vertex="1">
          <mxGeometry x="355" y="615" width="125" height="60" as="geometry" />
        </mxCell>
        <mxCell id="KpHtbhdy7NQ5oqnVyyX--13" value="" style="endArrow=none;html=1;rounded=0;entryX=0.5;entryY=1;entryDx=0;entryDy=0;" parent="1" target="KpHtbhdy7NQ5oqnVyyX--12" edge="1">
          <mxGeometry width="50" height="50" relative="1" as="geometry">
            <mxPoint x="418" y="730" as="sourcePoint" />
            <mxPoint x="430" y="720" as="targetPoint" />
          </mxGeometry>
        </mxCell>
        <mxCell id="KpHtbhdy7NQ5oqnVyyX--14" value="incluye" style="text;html=1;align=center;verticalAlign=middle;resizable=0;points=[];autosize=1;strokeColor=none;fillColor=none;" parent="1" vertex="1">
          <mxGeometry x="387.5" y="730" width="60" height="30" as="geometry" />
        </mxCell>
        <mxCell id="KpHtbhdy7NQ5oqnVyyX--15" value="libros&amp;nbsp;" style="rounded=0;whiteSpace=wrap;html=1;" parent="1" vertex="1">
          <mxGeometry x="360" y="790" width="120" height="60" as="geometry" />
        </mxCell>
        <mxCell id="KpHtbhdy7NQ5oqnVyyX--16" value="" style="endArrow=classic;html=1;rounded=0;entryX=0.5;entryY=0;entryDx=0;entryDy=0;" parent="1" source="KpHtbhdy7NQ5oqnVyyX--14" target="KpHtbhdy7NQ5oqnVyyX--15" edge="1">
          <mxGeometry width="50" height="50" relative="1" as="geometry">
            <mxPoint x="380" y="770" as="sourcePoint" />
            <mxPoint x="430" y="720" as="targetPoint" />
          </mxGeometry>
        </mxCell>
        <mxCell id="KpHtbhdy7NQ5oqnVyyX--19" value="- string titulo&lt;div&gt;- string genero&lt;/div&gt;&lt;div&gt;- string autor&lt;/div&gt;&lt;div&gt;- string estado&lt;/div&gt;&lt;div&gt;- int id&lt;/div&gt;" style="rounded=0;whiteSpace=wrap;html=1;align=left;" parent="1" vertex="1">
          <mxGeometry x="360" y="850" width="120" height="110" as="geometry" />
        </mxCell>
        <mxCell id="KpHtbhdy7NQ5oqnVyyX--20" value="&lt;div style=&quot;text-align: left;&quot;&gt;&lt;font style=&quot;font-size: 10px;&quot;&gt;&lt;span style=&quot;background-color: transparent; color: light-dark(rgb(0, 0, 0), rgb(255, 255, 255));&quot;&gt;+&lt;/span&gt;&lt;span style=&quot;color: light-dark(rgb(0, 0, 0), rgb(255, 255, 255)); background-color: light-dark(#ffffff, var(--ge-dark-color, #121212));&quot;&gt;&amp;nbsp;&lt;span style=&quot;margin: 0px; padding: 0px; user-select: text; -webkit-user-drag: none; -webkit-tap-highlight-color: transparent; outline: transparent solid 1px; color: windowtext; font-family: &amp;quot;Century Schoolbook&amp;quot;, serif; line-height: 20.7px; background-color: rgb(255, 255, 0); font-variant-ligatures: none !important;&quot; lang=&quot;ES-US&quot; class=&quot;TextRun Highlight  BCX0 SCXO95142332&quot; data-contrast=&quot;auto&quot;&gt;&lt;span style=&quot;margin: 0px; padding: 0px; user-select: text; -webkit-user-drag: none; -webkit-tap-highlight-color: transparent; background-repeat: repeat-x; background-position: left bottom; background-image: url(&amp;quot;data:image/gif;base64,R0lGODlhBQAEAJECAP////8AAAAAAAAAACH5BAEAAAIALAAAAAAFAAQAAAIIlGAXCCHrTCgAOw==&amp;quot;); border-bottom: 1px solid transparent;&quot; class=&quot;SpellingError  BCX0 SCXO95142332&quot;&gt;obtenerInformacion&lt;/span&gt;&lt;span style=&quot;margin: 0px; padding: 0px; user-select: text; -webkit-user-drag: none; -webkit-tap-highlight-color: transparent;&quot; class=&quot;NormalTextRun  BCX0 SCXO95142332&quot;&gt;()&lt;/span&gt;&lt;/span&gt;&lt;/span&gt;&lt;/font&gt;&lt;/div&gt;&lt;div style=&quot;text-align: left;&quot;&gt;&lt;font style=&quot;font-size: 10px;&quot;&gt;&lt;span style=&quot;margin: 0px; padding: 0px; user-select: text; -webkit-user-drag: none; -webkit-tap-highlight-color: transparent; outline: transparent solid 1px; color: windowtext; font-family: &amp;quot;Century Schoolbook&amp;quot;, serif; line-height: 20.7px; background-color: light-dark(#ffffff, var(--ge-dark-color, #121212)); font-variant-ligatures: none !important;&quot; lang=&quot;ES-US&quot; class=&quot;TextRun Highlight  BCX0 SCXO95142332&quot; data-contrast=&quot;auto&quot;&gt;&lt;span style=&quot;margin: 0px; padding: 0px; user-select: text; -webkit-user-drag: none; -webkit-tap-highlight-color: transparent;&quot; class=&quot;NormalTextRun  BCX0 SCXO95142332&quot;&gt;&amp;nbsp;+&amp;nbsp;&lt;/span&gt;&lt;span style=&quot;margin: 0px; padding: 0px; user-select: text; -webkit-user-drag: none; -webkit-tap-highlight-color: transparent; background-repeat: repeat-x; background-position: left bottom; background-image: url(&amp;quot;data:image/gif;base64,R0lGODlhBQAEAJECAP////8AAAAAAAAAACH5BAEAAAIALAAAAAAFAAQAAAIIlGAXCCHrTCgAOw==&amp;quot;); border-bottom: 1px solid transparent;&quot; class=&quot;SpellingError  BCX0 SCXO95142332&quot;&gt;actualizarEstado&lt;/span&gt;&lt;span style=&quot;margin: 0px; padding: 0px; user-select: text; -webkit-user-drag: none; -webkit-tap-highlight-color: transparent;&quot; class=&quot;NormalTextRun  BCX0 SCXO95142332&quot;&gt;()&lt;/span&gt;&lt;/span&gt;&lt;span style=&quot;margin: 0px; padding: 0px; user-select: text; -webkit-user-drag: none; -webkit-tap-highlight-color: transparent; color: windowtext; font-family: &amp;quot;Century Schoolbook&amp;quot;, serif; text-align: left; background-color: transparent; line-height: 20.7px; font-variant-ligatures: none !important;&quot; lang=&quot;ES-US&quot; class=&quot;TextRun  BCX0 SCXO95142332&quot; data-contrast=&quot;auto&quot;&gt;&amp;nbsp;&lt;/span&gt;&lt;/font&gt;&lt;/div&gt;" style="rounded=0;whiteSpace=wrap;html=1;" parent="1" vertex="1">
          <mxGeometry x="360" y="960" width="120" height="60" as="geometry" />
        </mxCell>
      </root>
    </mxGraphModel>
  </diagram>
</mxfile>
